<svg version="1.1" viewBox="0.0 0.0 511.81102362204723 512.3254593175853" fill="none" stroke="none" stroke-linecap="square" stroke-miterlimit="10" xmlns:xlink="http://www.w3.org/1999/xlink" xmlns="http://www.w3.org/2000/svg"><clipPath id="p.0"><path d="m0 0l511.81104 0l0 512.32544l-511.81104 0l0 -512.32544z" clip-rule="nonzero"/></clipPath><g clip-path="url(#p.0)"><path fill="#000000" fill-opacity="0.0" d="m0 0l511.81104 0l0 512.32544l-511.81104 0z" fill-rule="evenodd"/><path fill="#dd2d5a" d="m0.062992126 0.32020998l511.68503 0l0 511.68503l-511.68503 0z" fill-rule="evenodd"/><path fill="#ffffff" d="m312.53995 299.97708l0 0c-38.726776 45.83441 -101.816284 62.85022 -158.33829 42.70523c-56.522003 -20.144989 -94.62773 -73.22772 -95.63548 -133.2239c-1.0077477 -59.996185 35.293736 -114.32873 91.1073 -136.3606c55.81357 -22.031872 119.43895 -7.1444855 159.68321 37.363464l-22.56485 20.403229c-31.742249 -35.10521 -81.92615 -46.84748 -125.94853 -29.47007c-44.0224 17.377419 -72.65483 60.231667 -71.85998 107.55306c0.7948532 47.321396 30.850365 89.189865 75.431526 105.079025c44.581177 15.88916 94.34241 2.4681091 124.88776 -33.68332z" fill-rule="evenodd"/><path fill="#ffffff" d="m202.52321 219.20255l0 0c42.891907 -50.763992 114.95302 -65.581406 174.39467 -35.859528c59.44165 29.721863 90.82251 96.262085 75.94464 161.03357c-14.877869 64.771515 -72.14963 110.948425 -138.603 111.7525c-66.453384 0.80404663 -124.82564 -43.973602 -141.26634 -108.36618l28.87033 -7.371155l0 0c13.038803 51.06845 59.332657 86.58072 112.03551 85.94302c52.70285 -0.6376953 98.12393 -37.259674 109.92325 -88.62866c11.799347 -51.368988 -13.088196 -104.140686 -60.230164 -127.71251c-47.141968 -23.571823 -104.292206 -11.820419 -138.30891 28.439484z" fill-rule="evenodd"/></g></svg>